<svg xmlns="http://www.w3.org/2000/svg" viewBox="0 0 256 256" xml:space="preserve"><path fill="#F0C020" d="M25.105 127.997c-3.961-1.309-8.051-2.453-10.348-12.345-2.115 9.112-5.504 10.745-10.348 12.345 7.9 2.61 9.092 6.933 10.348 12.345 2.165-9.33 5.745-10.824 10.348-12.345z"/><path d="M12.166 140.943c-1.147-4.945-1.905-8.212-8.591-10.421-2.43-.803-2.424-4.25 0-5.051 4.025-1.33 6.684-2.209 8.591-10.422.633-2.73 4.546-2.737 5.181 0 1.95 8.399 4.863 9.193 8.591 10.421 2.43.803 2.424 4.25 0 5.051-3.881 1.282-6.686 2.209-8.591 10.421-.636 2.743-4.544 2.744-5.181.001zm-1.52-12.885c1.914 1.314 3.222 2.815 4.164 4.403 1.141-2.017 2.462-3.405 3.934-4.439-1.411-1.01-2.778-2.44-3.977-4.601-1.187 2.133-2.573 3.574-4.121 4.637z"/><path fill="#F0C020" d="M251.591 127.997c-3.961-1.309-8.051-2.453-10.348-12.345-2.115 9.112-5.504 10.745-10.348 12.345 7.9 2.61 9.092 6.933 10.348 12.345 2.165-9.33 5.745-10.824 10.348-12.345z"/><path d="M238.652 140.943c-1.147-4.945-1.905-8.212-8.591-10.421-2.43-.803-2.424-4.25 0-5.051 4.025-1.33 6.684-2.209 8.591-10.422.633-2.73 4.546-2.737 5.181 0 1.95 8.399 4.863 9.193 8.591 10.421 2.43.803 2.424 4.25 0 5.051-3.881 1.282-6.686 2.209-8.591 10.421-.636 2.743-4.544 2.744-5.181.001zm-1.52-12.885c1.914 1.314 3.222 2.815 4.164 4.403 1.141-2.017 2.462-3.405 3.934-4.439-1.411-1.01-2.778-2.44-3.977-4.601-1.187 2.133-2.572 3.574-4.121 4.637z"/><path fill="#13BF6D" d="m232.212 154.73-13.33-7.69a92.606 92.606 0 0 0 1.96-19.04c0-6.53-.67-12.89-1.96-19.04l13.33-7.69c4.58-2.65 6.14-8.5 3.5-13.08l-19.38-33.57a9.567 9.567 0 0 0-13.08-3.5l-13.34 7.7a92.86 92.86 0 0 0-32.96-19.06V24.38c0-5.28-4.29-9.57-9.57-9.57h-38.77c-5.28 0-9.57 4.29-9.57 9.57v15.38a92.86 92.86 0 0 0-32.96 19.06l-13.34-7.7a9.567 9.567 0 0 0-13.08 3.5l-19.38 33.57c-2.64 4.58-1.08 10.43 3.5 13.08l13.33 7.69a93.304 93.304 0 0 0-1.95 19.04c0 6.53.67 12.89 1.95 19.04l-13.33 7.69c-4.58 2.65-6.14 8.5-3.5 13.08l19.38 33.57a9.567 9.567 0 0 0 13.08 3.5l13.34-7.7a92.86 92.86 0 0 0 32.96 19.06v15.38c0 5.28 4.29 9.57 9.57 9.57h38.77c5.28 0 9.57-4.29 9.57-9.57v-15.38a92.86 92.86 0 0 0 32.96-19.06l13.34 7.7a9.567 9.567 0 0 0 13.08-3.5l19.38-33.57c2.64-4.58 1.08-10.43-3.5-13.08zm-75.53 30.69c-12.76 6.38-26.93 8.12-40.18 5.72-29.95-5.41-52.67-31.62-52.67-63.14 0-35.44 28.73-64.17 64.17-64.17s64.17 28.73 64.17 64.17c0 25.13-14.45 46.89-35.49 57.42z"/><path fill="#13BF6D" d="M157.456 133.24c0 16.267-13.187 29.454-29.454 29.454-16.267 0-29.454-13.187-29.454-29.454s29.454-51.49 29.454-51.49 29.454 35.223 29.454 51.49z"/><path fill="#76FFBB" d="M119.142 153.335a2.5 2.5 0 0 1 1.873-4.635c12.283 4.964 23.853-3.973 23.853-15.459 0-1.078-.484-4.461-4.971-12.593a2.5 2.5 0 0 1 4.378-2.415c3.763 6.821 5.592 11.73 5.592 15.008 0 15.009-15.148 26.391-30.725 20.094zm-9.105-5.871a39.566 39.566 0 0 1-2.271-2.256 2.5 2.5 0 0 1 3.664-3.403 35.05 35.05 0 0 0 1.982 1.971 2.499 2.499 0 1 1-3.375 3.688z"/><path fill="#76FFBB" d="M128.001 204.635c-15.848 0-31.04-4.769-43.934-13.792a2.5 2.5 0 0 1 2.867-4.097c12.049 8.432 26.25 12.889 41.066 12.889 39.655 0 71.636-31.972 71.636-71.635 0-16.56-5.688-32.743-16.398-45.673a2.501 2.501 0 0 1 3.852-3.189c11.739 14.179 17.547 31.599 17.547 48.862 0 42.417-34.208 76.635-76.636 76.635zm-51.977-20.273a74.048 74.048 0 0 1-2.236-2.148 2.498 2.498 0 0 1 0-3.535 2.498 2.498 0 0 1 3.535 0 74.371 74.371 0 0 0 2.09 2.008 2.5 2.5 0 1 1-3.389 3.675z"/><path d="M115.35 102.79c.771-1.14.47-2.69-.67-3.47-1.1-.75-2.72-.44-3.47.66v.01c-.776 1.124-.484 2.681.66 3.47a2.508 2.508 0 0 0 3.48-.67z"/><path d="M126.09 80.14c-.03.03-4.04 4.84-9.03 11.59-.81 1.11-.58 2.68.53 3.5 1.07.79 2.71.54 3.5-.53 0 0 0-.01.01-.01 1.628-2.21 3.14-4.187 4.4-5.807l-.006 48.78-19.472-19.472a105.822 105.822 0 0 1 3.979-7.081c.71-1.19.33-2.73-.851-3.44-1.206-.712-2.728-.336-3.43.85-4.46 7.47-9.59 17.02-9.67 24.72 0 16.89 13.025 30.577 29.441 31.844v2.596c.02 12.646 10.341 22.39 22.26 22.39h.01c15.474 0 46.91-24.21 46.91-62.07 0-26.302-15.498-49.494-38.32-60.32-1.22-.57-2.76-.01-3.33 1.19a2.49 2.49 0 0 0 1.19 3.33c20.818 9.863 35.46 31.466 35.46 55.8 0 35.275-29.219 57.07-41.94 57.07-9.489 0-17.22-7.8-17.239-17.39v-2.594c16.394-1.254 29.469-14.924 29.469-31.846-.105-14.62-20.805-41.93-29.93-52.95-.842-1.255-2.861-1.448-3.941-.15zm-.599 79.934c-13.661-1.297-24.423-12.84-24.441-26.834-.038-2.466.929-6.027 2.717-10.242l21.726 21.735-.002 15.341zm5.008-71.201c3.629 4.657 7.458 9.895 10.839 14.929l-10.841 10.841.002-25.77zm-.004 32.841 13.633-13.641c3.741 5.897 10.94 18.157 10.832 25.168-.029 14-10.791 25.547-24.469 26.835l.004-38.362zM28.49 182.02c-1.175.669-1.619 2.221-.91 3.41.685 1.216 2.246 1.592 3.41.92a2.513 2.513 0 0 0 .92-3.42c-.67-1.14-2.261-1.58-3.42-.91z"/><path d="M18.12 86.94a12.076 12.076 0 0 0-1.62 6.03c-.01 4.3 2.31 8.31 6.04 10.46l11.77 6.8a96.578 96.578 0 0 0 0 35.54l-11.77 6.8c-5.761 3.32-7.759 10.728-4.42 16.49l4.46 7.71c.66 1.15 2.25 1.59 3.41.92 1.166-.665 1.622-2.207.909-3.42l-4.449-7.71c-1.989-3.438-.734-7.74 2.59-9.66l13.319-7.7a2.484 2.484 0 0 0 1.2-2.67 91.341 91.341 0 0 1 0-37.06 2.484 2.484 0 0 0-1.2-2.67L25.04 99.1c-2.21-1.27-3.54-3.56-3.54-6.13 0-1.25.319-2.44.95-3.53l19.38-33.57c1.878-3.249 6.145-4.607 9.67-2.59l13.34 7.71c.91.52 2.13.4 2.92-.31 9.37-8.39 20.16-14.63 32.07-18.54a2.499 2.499 0 0 0 1.71-2.38V24.38c.01-3.89 3.189-7.06 7.08-7.07h38.77c3.891.01 7.061 3.18 7.07 7.07v15.38c0 1.09.689 2.04 1.72 2.38 11.9 3.91 22.69 10.15 32.07 18.54.78.71 2 .83 2.91.31l13.35-7.71c3.463-2.001 7.762-.694 9.66 2.59l19.38 33.57c1.99 3.444.724 7.757-2.58 9.66l-13.33 7.7a2.487 2.487 0 0 0-1.2 2.67c2.486 11.91 2.581 24.694 0 37.06a2.487 2.487 0 0 0 1.2 2.67l13.32 7.7c3.309 1.898 4.584 6.208 2.59 9.66l-19.38 33.57c-1.904 3.295-6.214 4.583-9.66 2.59l-13.35-7.71c-.91-.52-2.13-.4-2.91.31-9.38 8.39-20.17 14.63-32.07 18.54a2.495 2.495 0 0 0-1.72 2.38v15.38c-.01 3.89-3.18 7.06-7.07 7.07h-38.77c-3.891-.01-7.07-3.18-7.08-7.07v-15.38c0-1.09-.69-2.04-1.71-2.38-11.91-3.91-22.7-10.15-32.07-18.54-.79-.71-2.01-.83-2.92-.31l-13.35 7.71c-3.372 1.949-7.719.769-9.66-2.59l-4.92-8.54c-.67-1.15-2.261-1.58-3.42-.91-1.175.669-1.619 2.222-.91 3.41l4.92 8.54c3.304 5.719 10.724 7.76 16.49 4.42l11.8-6.81a94.917 94.917 0 0 0 30.76 17.79v13.59c0 6.65 5.41 12.07 12.07 12.07h38.77c6.65 0 12.061-5.42 12.07-12.07v-13.59c11.31-3.96 21.649-9.94 30.76-17.79l11.79 6.81c5.774 3.344 13.15 1.333 16.49-4.42l19.38-33.57c3.356-5.797 1.311-13.187-4.42-16.49l-11.771-6.8a96.514 96.514 0 0 0 0-35.54l11.771-6.8c5.738-3.308 7.769-10.674 4.42-16.49L218.5 53.37c-3.326-5.754-10.716-7.765-16.49-4.42l-11.79 6.81c-9.11-7.85-19.45-13.83-30.76-17.79V24.38c-.01-6.65-5.42-12.07-12.07-12.07h-38.77c-6.66 0-12.07 5.42-12.07 12.07v13.59a94.917 94.917 0 0 0-30.76 17.79L54 48.95c-5.807-3.346-13.177-1.331-16.5 4.42L18.12 86.94z"/><path d="M136.5 61.87C96.841 56.718 61.33 87.684 61.33 128c0 32.362 23.219 59.908 54.729 65.6 1.278.253 2.652-.602 2.9-2.02.257-1.39-.683-2.655-2.01-2.9-29.341-5.3-50.62-30.82-50.62-60.68 0-37.327 32.817-65.91 69.529-61.17 1.37.17 2.62-.82 2.801-2.17.171-1.36-.8-2.62-2.159-2.79zM148.35 67.09a2.489 2.489 0 0 0-1.689-3.1c-1.301-.38-2.73.41-3.11 1.7a2.504 2.504 0 0 0 1.7 3.1c1.291.393 2.709-.365 3.099-1.7z"/></svg>