<svg viewBox="0 0 160 50" id="logo--pws" xmlns="http://www.w3.org/2000/svg" height="512" width="1920">
    <path d="M17.955 15.449C13.117 7.866 11.995 0 11.995 0s-1.127 7.866-5.96 15.449C3.79 18.968 0 24.093 0 29.46 0 36.41 5.372 42 12 42s12-5.59 12-12.54c-.01-5.367-3.8-10.492-6.045-14.011z" fill="#00ACE6"></path><path d="M12.005 23.337a3.67 3.67 0 003.666-3.676 3.67 3.67 0 00-3.666-3.675 3.67 3.67 0 00-3.666 3.675 3.67 3.67 0 003.666 3.676zM24 20.077C23.985 15.25 21.347 11.07 17.501 9c.135.1.265.2.394.31a9.933 9.933 0 014.025 8.001c0 5.496-4.444 9.946-9.92 9.946-5.481 0-9.92-4.45-9.92-9.946A9.933 9.933 0 016.1 9.315c.13-.105.264-.21.399-.31C2.653 11.08.015 15.255 0 20.086v.085c0 4.646 1.935 7.731 6.035 14.242C10.953 42.224 11.995 50 11.995 50s1.042-7.78 5.96-15.587c4.1-6.51 6.035-9.601 6.035-14.242v-.055c.01-.02.01-.03.01-.04z" fill="#19254D"></path><path d="M70.332 35.029H65.48c-.04 0-.07.029-.07.067v.613c0 .039.03.067.07.067h1.988V40.9c0 .038.03.067.07.067h.721c.04 0 .07-.029.07-.067v-5.12h1.998c.04 0 .07-.029.07-.067V35.1c.005-.043-.025-.072-.065-.072zm-10.566 0h-.75c-.03 0-.056.014-.066.038l-2.84 5.803c-.01.02-.01.048.006.067.015.02.035.034.06.034h.766c.03 0 .055-.014.065-.038l.686-1.443h3.35l.696 1.442c.01.025.035.04.065.04h.787a.07.07 0 00.06-.035c.015-.019.015-.043.005-.067l-2.83-5.802c-.005-.025-.035-.04-.06-.04zm-1.702 3.704l1.307-2.75 1.322 2.75h-2.63zm92.557-3.704h-.886a.079.079 0 00-.065.038l-2.244 4.095-2.248-4.094c-.01-.025-.035-.04-.065-.04h-.896c-.04 0-.071.03-.071.069v5.802c0 .038.031.067.071.067h.686c.04 0 .07-.029.07-.067v-4.544l2.158 3.96c.01.024.035.039.065.039h.436a.08.08 0 00.065-.039l2.168-3.965.01 4.544c0 .038.03.067.07.067h.671c.04 0 .07-.029.07-.067v-5.797c.005-.04-.025-.068-.065-.068zm-71.486 5.19H75.52v-1.886h3.12c.04 0 .07-.03.07-.068v-.603c0-.038-.03-.067-.07-.067h-3.12v-1.809h3.495c.04 0 .07-.029.07-.067v-.613c0-.038-.03-.067-.07-.067h-4.291c-.04 0-.07.029-.07.067v5.802c0 .039.03.068.07.068h4.411c.04 0 .07-.03.07-.068v-.612c0-.048-.03-.077-.07-.077zm-25.903-5.19h-.751c-.03 0-.06.02-.07.048l-1.648 4.857-1.667-4.857a.07.07 0 00-.07-.048h-.722c-.03 0-.06.02-.07.048l-1.647 4.857-1.668-4.857a.07.07 0 00-.07-.048h-.776a.072.072 0 00-.06.029.072.072 0 00-.01.063l2.113 5.802c.01.029.04.048.07.048h.741c.03 0 .06-.02.07-.048l1.658-4.722 1.637 4.722a.07.07 0 00.07.048h.741c.03 0 .06-.02.07-.048l2.124-5.802c.01-.02.005-.044-.01-.063-.015-.02-.03-.03-.055-.03zm104.72 2.547c-.806-.227-1.507-.42-1.507-1.062 0-.448.49-.728 1.272-.728a3.44 3.44 0 011.707.473c.015.01.04.014.06.01a.08.08 0 00.045-.034l.306-.589a.072.072 0 00-.025-.091c-.556-.343-1.322-.55-2.043-.55-1.372 0-2.259.612-2.259 1.563 0 1.167 1.077 1.466 2.028 1.726.822.227 1.528.42 1.528 1.085 0 .517-.541.835-1.412.835-.712 0-1.498-.304-2.059-.796a.092.092 0 00-.06-.02c-.02.005-.04.015-.05.034l-.325.574a.072.072 0 00.015.087c.646.565 1.572.907 2.468.907 1.413 0 2.359-.666 2.359-1.654.005-1.196-1.087-1.5-2.048-1.77zm-18.548 2.643h-3.615v-1.886h3.12c.04 0 .07-.03.07-.068v-.603c0-.038-.03-.067-.07-.067h-3.12v-1.809h3.495c.04 0 .07-.029.07-.067v-.613c0-.038-.03-.067-.07-.067h-4.291c-.04 0-.07.029-.07.067v5.802c0 .039.03.068.07.068h4.411c.041 0 .071-.03.071-.068v-.612c0-.048-.03-.077-.071-.077zm-19.599-2.643c-.806-.227-1.507-.42-1.507-1.062 0-.448.491-.728 1.272-.728.576 0 1.212.174 1.708.468.015.01.04.015.06.01a.08.08 0 00.045-.034l.305-.588a.073.073 0 00-.025-.092c-.556-.343-1.322-.55-2.043-.55-1.372 0-2.258.612-2.258 1.563 0 1.167 1.076 1.466 2.028 1.726.821.227 1.527.42 1.527 1.086 0 .516-.541.834-1.412.834-.711 0-1.497-.304-2.058-.796a.092.092 0 00-.06-.02c-.02.006-.04.015-.05.035l-.326.574a.072.072 0 00.015.086c.646.565 1.573.907 2.469.907 1.412 0 2.358-.665 2.358-1.654.005-1.191-1.086-1.495-2.048-1.765zm10.796-2.547h-4.852c-.04 0-.07.029-.07.067v.613c0 .039.03.067.07.067h1.988V40.9c0 .038.03.067.07.067h.721c.04 0 .07-.029.07-.067v-5.12h1.998c.04 0 .07-.029.07-.067V35.1c.006-.043-.025-.072-.065-.072zm-43.064 3.926c.892-.294 1.383-.97 1.383-1.91 0-1.283-.937-2.016-2.57-2.016h-2.403c-.04 0-.07.029-.07.067V40.9c0 .038.03.067.07.067h.721c.04 0 .07-.029.07-.067v-1.77h1.608c.13 0 .255-.005.37-.015l1.307 1.823c.015.02.035.03.06.03h.822c.025 0 .05-.015.065-.04.01-.023.01-.052-.005-.072l-1.428-1.9zm-1.181-.579h-1.608v-2.595h1.608c.786 0 1.727.222 1.727 1.283-.005 1.086-.941 1.312-1.727 1.312zm26.299-3.347c-.025 0-.045.014-.06.034l-1.963 2.951-1.993-2.951c-.015-.02-.035-.034-.06-.034h-.751a.086.086 0 00-.065.034c-.015.019-.01.048 0 .072l2.438 3.786V40.9c0 .038.03.067.07.067h.716c.04 0 .07-.029.07-.067v-1.997l2.394-3.772c.015-.02.015-.048 0-.072-.015-.024-.035-.034-.065-.034h-.731v.005zm-10.706 2.547c-.806-.227-1.507-.42-1.507-1.062 0-.448.49-.728 1.272-.728a3.44 3.44 0 011.707.473c.015.01.04.014.06.01a.08.08 0 00.045-.034l.306-.589a.072.072 0 00-.025-.091c-.556-.343-1.322-.55-2.043-.55-1.372 0-2.259.612-2.259 1.563 0 1.167 1.077 1.466 2.028 1.726.822.227 1.528.42 1.528 1.085 0 .517-.541.835-1.413.835-.711 0-1.497-.304-2.058-.796a.092.092 0 00-.06-.02c-.02.005-.04.015-.05.034l-.325.574a.072.072 0 00.015.087c.646.565 1.572.907 2.468.907 1.413 0 2.359-.666 2.359-1.654.005-1.196-1.087-1.5-2.048-1.77z" fill="#00ACE6"></path><path d="M52.297 9h-7.69a.606.606 0 00-.607.607v17.535c0 .337.27.607.607.607h1.354c.336 0 .607-.27.607-.607v-5.455h5.734c1.946 0 3.581-.692 4.74-1.996 1.018-1.153 1.58-2.693 1.58-4.348C58.617 12.194 56.445 9 52.297 9zm0 10.245h-5.734v-7.778h5.734c2.593 0 3.772 2.016 3.772 3.886 0 1.876-1.179 3.892-3.772 3.892zm107.096 5.987h-10.469v-5.697h9.666c.337 0 .607-.27.607-.606V17.7a.605.605 0 00-.607-.607h-9.666v-5.6h10.168a.607.607 0 00.607-.607v-1.28a.606.606 0 00-.607-.606h-12.104a.606.606 0 00-.607.607v17.535c0 .337.271.607.607.607h12.405c.336 0 .607-.27.607-.607V25.84a.609.609 0 00-.607-.607zm-38.349-4.292c1.359-.211 2.513-.768 3.376-1.64 1.058-1.068 1.635-2.573 1.62-4.232-.015-1.585-.592-3.064-1.625-4.168-1.169-1.243-2.809-1.895-4.745-1.895h-7.72a.606.606 0 00-.607.607v17.535c0 .337.271.607.607.607h1.354c.336 0 .607-.27.607-.607V21.11h3.908l5.884 6.439a.603.603 0 00.446.195h1.781a.606.606 0 00.446-1.018l-5.332-5.786zm-7.128-2.322v-7.15h5.759c1.103 0 2.036.35 2.688 1.012.642.647.999 1.58.989 2.557-.016 1.635-.693 3.58-3.828 3.58h-5.608zM90.906 9h-1.329a.606.606 0 00-.607.607v10.896c0 3.46-2.483 5.04-4.785 5.04-2.297 0-4.776-1.575-4.776-5.04V9.607A.606.606 0 0078.802 9h-1.329a.606.606 0 00-.607.607v10.896c0 2.302.793 4.248 2.293 5.617 1.329 1.213 3.11 1.88 5.02 1.88 1.912 0 3.698-.667 5.032-1.88 1.505-1.37 2.298-3.31 2.298-5.612V9.607A.602.602 0 0090.907 9z" fill="#19254D"></path></svg>